<svg width="21" height="21" viewBox="0 0 21 21" fill="none" xmlns="http://www.w3.org/2000/svg">
<path fill-rule="evenodd" clip-rule="evenodd" d="M1.3125 3.5C1.3125 6.972 4.31025 8.539 5.6175 5.75C5.93906 5.063 6.64124 4.809 7.17543 5.188C7.71093 5.566 7.54294 7.141 6.80269 8.688C6.06244 10.234 5.41012 10.938 5.35368 10.25C5.29724 9.563 4.06875 9 2.625 9C0.3885 9 0 9.667 0 13.5C0 17.268 0.40951 18 2.51607 18C3.89945 18 5.32875 17.438 5.69362 16.75C6.08868 16.003 6.39713 16.205 6.45882 17.25C6.53101 18.471 5.57025 19 3.28125 19C1.47656 19 0 19.45 0 20C0 20.583 4.37456 21 10.5 21C16.6254 21 21 20.583 21 20C21 19.45 19.5234 19 17.7188 19C15.4298 19 14.469 18.471 14.5412 17.25C14.6029 16.205 14.9113 16.003 15.3064 16.75C15.6713 17.438 17.1006 18 18.4839 18C20.5905 18 21 17.268 21 13.5C21 9.667 20.6115 9 18.375 9C16.9312 9 15.7028 9.563 15.6463 10.25C15.5899 10.938 14.9376 10.234 14.1973 8.688C13.4571 7.141 13.2891 5.566 13.8246 5.188C14.3588 4.809 15.0609 5.063 15.3825 5.75C16.6898 8.539 19.6875 6.972 19.6875 3.5C19.6875 1.056 19.0942 0 17.7188 0C16.6359 0 15.75 0.45 15.75 1C15.75 2.435 12.1761 2.236 11.2652 0.75C10.6536 -0.25 10.3464 -0.25 9.73482 0.75C8.82395 2.236 5.25 2.435 5.25 1C5.25 0.45 4.36406 0 3.28125 0C1.90575 0 1.3125 1.056 1.3125 3.5Z" fill="black"/>
</svg>
